<svg width="34" height="34" viewBox="0 0 25 24" fill="none" xmlns="http://www.w3.org/2000/svg">
    <path d="M2.5 10.0826C2.5 8.77737 3.13684 7.55421 4.20615 6.80569L10.2061 2.6057C11.5834 1.6416 13.4166 1.6416 14.7938 2.60569L20.7938 6.80569C21.8632 7.55421 22.5 8.77737 22.5 10.0826V20C22.5 21.1046 21.6046 22 20.5 22H4.5C3.39543 22 2.5 21.1046 2.5 20V10.0826Z" stroke="#FFFFFF" stroke-width="1.5"/>
    <path d="M18.5 22V12C18.5 10.8954 17.6046 10 16.5 10H8.5C7.39543 10 6.5 10.8954 6.5 12V22" stroke="#FFFFFF" stroke-width="1.5"/>
    <path d="M18.5 14L6.5 14" stroke="#FFFFFF" stroke-width="1.5" stroke-linecap="round" stroke-linejoin="round"/>
    <path d="M18.5 18L6.5 18" stroke="#FFFFFF" stroke-width="1.5" stroke-linecap="round" stroke-linejoin="round"/>
</svg>
